.
..............................Site Info...........................

 -   http://www.scenetime.com  *_* 

     We care to share . Join us on  http://www.scenetime.com 

    Be the first to get new release at  http://www.scenetime.com

        Seed back for speed


...................................NFO:.................................................








































          
          
              
              
                    
                    
                    
                    

Cannibal.Killer.Clowns.On.Dope.2009.DVDRiP.XviD-SiC

Poster:
[img]http://img838.imageshack.us/img838/3239/cannibalkillerclownsond.jpg[/img]

IMDB Link: 
http://www.amazon.com/Cannibal-Killer-Clowns-Dope-Ashley/dp/B002DYJL88

Description: The clowns were just released from prison and they forced a loser to pull their finger, now the loser ( Zed the Loser ) wants revenge, he breaks out of prison, gets his girl to break out of prison too and they go clown hunting. Kill the Fricking Clowns ! is the rally cry. Follow the gang as they get money, get guns, get dope,kill everyone in their way as they work to kill the [**]ing Cannibal Killer Clowns On Dope !





General
Complete name                    : Cannibal.Killer.Clowns.On.Dope.2009.DVDRiP.XviD-SiC.avi
Format                           : AVI
Format/Info                      : Audio Video Interleave
File size                        : 1.37 GiB
Duration                         : 1h 32mn
Overall bit rate                 : 2 110 Kbps

Video
ID                               : 0
Format                           : MPEG-4 Visual
Format profile                   : Simple@L3
Format settings, BVOP            : 2
Format settings, QPel            : No
Format settings, GMC             : No warppoints
Format settings, Matrix          : Default (H.263)
Muxing mode                      : Packed bitstream
Codec ID                         : XVID
Codec ID/Hint                    : XviD
Duration                         : 1h 32mn
Bit rate                         : 1 846 Kbps
Width                            : 720 pixels
Height                           : 400 pixels
Display aspect ratio             : 16:9
Frame rate                       : 29.970 fps
Color space                      : YUV
Chroma subsampling               : 4:2:0
Bit depth                        : 8 bits
Scan type                        : Progressive
Compression mode                 : Lossy
Bits/(Pixel*Frame)               : 0.214
Stream size                      : 1.20 GiB (87%)
Writing library                  : XviD 1.0.3 (UTC 2004-12-20)

Audio
ID                               : 1
Format                           : AC-3
Format/Info                      : Audio Coding 3
Mode extension                   : CM (complete main)
Codec ID                         : 2000
Duration                         : 1h 32mn
Bit rate mode                    : Constant
Bit rate                         : 256 Kbps
Channel(s)                       : 2 channels
Channel positions                : Front: L R
Sampling rate                    : 48.0 KHz
Bit depth                        : 16 bits
Compression mode                 : Lossy
Stream size                      : 170 MiB (12%)
Alignment                        : Aligned on interleaves
Interleave, duration             : 64 ms (1.92 video frames)
Interleave, preload duration     : 192 ms
Title                            : VTS_01_1 Ta0 48K 16bit 2ch

























Screenshots:
[img]http://img651.imageshack.us/img651/6011/vlcsnap2012012817h37m11.png[/img]
[img]http://img69.imageshack.us/img69/4148/vlcsnap2012012817h37m30.png[/img]
[img]http://img267.imageshack.us/img267/7793/vlcsnap2012012817h37m10.png[/img]
[img]http://img714.imageshack.us/img714/6850/vlcsnap2012012817h37m18.pngg[/img]




Note :  

Source: Friend of a friend. 

Enjoy!

Respects to T00NG0D, CM8, Rx, ELEKTRI4KA, PA, YeFsTe, MrRep and everyone in the struggle...